<svg id="read" xmlns="http://www.w3.org/2000/svg" width="800" height="400"><defs><style>.cls-3{fill:#dd000b}</style></defs><path id="background" fill="transparent" d="M0 0h800v400H0z"/><path id="shadow" d="M414.87 361h-53.09a30.4 30.4 0 0 1-29.24-38.84C335 313.62 340.06 303.6 349 292c32.47-42.13 92.46-79.45 151.46-90.14-.95-9.06-.46-18.76-.46-29.86 0-5.55-2-12.46-3.78-19.35-5-7-6.41-21.12-3.06-36.44 2.56-11.67 7.35-21.52 12.77-27.47A18.61 18.61 0 0 1 505 78c3.33-16.51 30.4-25 60.46-18.91 26.86 5.42 47 20.62 48.6 35.58a7.5 7.5 0 0 1 1.71-.58c8.34-1.66 18 11.45 21.55 29.3 3.34 16.71.17 31.63-7.09 34.84 3.61 2.24 8 4.5 7.82 6.77-2 33-8.76 24.17-12 35a107.2 107.2 0 0 1-8.35 20.38c22.79 11.33 44.4 27.55 60.33 49.61 39 54 54 91 23 91H414.87z" fill="#fff"/><path id="phone-right" class="cls-3" transform="rotate(-17.64 446.323 287.71)" d="M444.26 275.58h4v24.22h-4z"/><path id="phone-left" class="cls-3" d="M385.02 316.2l2.47 7.76 3.81-1.21-2.55-8.02-3.73 1.47z"/><g id="recipient"><path d="M662.62 257.83c-14.5-20.08-34.43-36.65-59.24-49.3a110.29 110.29 0 0 0 7.56-18.95 11.13 11.13 0 0 1 3.56-5.69c3.33-3.26 7.11-7 8.5-29.77.17-2.85-2.74-4.91-6.12-7 6.2-5.69 8.46-19.57 5.35-35.14-3.8-19-14.14-32.52-23.63-30.91-3.42-15.25-23.78-29.71-49.8-35-14.86-3-29.51-2.63-41.24 1C495.41 51 487.75 57.87 486 66.61a20.58 20.58 0 0 0 .66 10.7c-5.51 6.49-10 16.41-12.44 27.47-3.33 15.19-2.08 29.89 3.15 37.68l.33 1.25c1.63 6.11 3.31 12.42 3.31 17.29 0 2.88 0 5.66-.06 8.37-.09 7-.16 13.59.37 19.88-56.93 10.83-117.36 47-150.89 90.53-8.34 10.81-14 21.18-16.8 30.82a32.4 32.4 0 0 0 31.15 41.4H684c8.5 0 14.18-2.68 16.88-8 6.7-13.06-5.82-41.25-38.26-86.17zM619 153.88c-1.29 21.26-4.48 24.39-7.3 27.15a15 15 0 0 0-4.59 7.41 106.36 106.36 0 0 1-8.2 20C585.94 232.59 565 247 543 247c-23.18 0-39.24-11.35-52.09-36.79a54.81 54.81 0 0 1-5.46-19.55 187.67 187.67 0 0 1-.51-21.25c0-2.71.06-5.51.06-8.41 0-5.4-1.75-12-3.44-18.32l-.41-1.54c-2.14-8.08-3.94-15.77-2.46-20.89a101.22 101.22 0 0 1 15.41-31.76c4.41 4.22 10.37 7.93 17.77 11a110.91 110.91 0 0 0 21.07 6.31 76.13 76.13 0 0 0 15.18 1.52 85.28 85.28 0 0 0 39.27-10 62.51 62.51 0 0 0 .73 21.44c1.78 8.91 5.1 17 9.34 22.76 4 5.41 8.43 8.29 12.71 8.29a9.77 9.77 0 0 0 1.86-.18c.31-.07.62-.15.93-.25l.68.42c1.81 1.2 5.17 3.2 5.36 4.08zm-.69-41.1c2.65 13.25 1.13 29.49-5.94 32.62a4.93 4.93 0 0 1-1.11.35c-3.18.63-7-1.75-10.56-6.55-3.9-5.31-7-12.83-8.64-21.18s-1.69-16.91 0-23.29c.81-.51 1.62-1 2.43-1.57 1.34-.91 2.55-1.79 3.6-2.63a2 2 0 0 0 .71-1.17 18.69 18.69 0 0 0 .36-4.32c6.29-1.24 15.52 9.59 19.15 27.74zM489.91 67.4c1.46-7.24 8.15-13.07 18.84-16.41 11.1-3.47 25-3.81 39.26-.94 25.28 5.11 45.5 19.65 47 33.83a16.07 16.07 0 0 1-.07 4c-.83.64-1.76 1.31-2.76 2s-2 1.29-3 1.9c-8 4.82-29.33 15.45-55.5 10.16a106.77 106.77 0 0 1-20.31-6.08c-7.86-3.3-13.93-7.26-18.06-11.77a23.21 23.21 0 0 1-4.52-7.09 16.63 16.63 0 0 1-.88-9.6zm-1.43 14a28.82 28.82 0 0 0 2.84 4.11 103.34 103.34 0 0 0-14.42 27.3c.29-2.37.69-4.77 1.22-7.19 2.1-9.62 5.81-18.22 10.36-24.21zM589 348h-63v-28h63zm108.32-5.79c-2 3.9-6.35 5.79-13.32 5.79h-66v-14a2 2 0 0 0-4 0v14h-21v-30a2 2 0 0 0-2-2h-67a2 2 0 0 0-2 2v30h-42.83c1-2.7 1.09-5 .17-6.93-1.46-3.09-4.89-4.18-7.63-4.73 3-3.23 6.29-8.35 6.29-11.34 0-1 0-4.05-13.58-8.93 7.73-9.65 6-14.9 5.58-15.92-1.23-2.75-4.26-4.15-9-4.15a60.36 60.36 0 0 0-11.45 1.27c-20.47 4.05-47.05 17-61.07 24.31-6.35 3.33-10.43 5.66-10.47 5.69a2 2 0 0 0 1 3.73 1.93 1.93 0 0 0 1-.27s4.05-2.32 10.32-5.6c13.84-7.24 40-20 60-23.92A55.73 55.73 0 0 1 461 300c1.7 0 4.65.23 5.35 1.79 1.28 2.86-3.23 9.84-6.84 13.88a2 2 0 0 0-.44 1.84 2 2 0 0 0 1.3 1.39c6.35 2.12 12.55 5 13.61 6.34-.3 2.31-4.53 8.39-7.09 10.1a2.33 2.33 0 0 0-1.17 2.48c.35 1.6 1.88 1.86 3.66 2.16 2 .35 5.45.92 6.34 2.8.55 1.15.23 2.94-.91 5.22h-115.1c.86-6.83 5-28.74 23.48-42.39a2 2 0 0 0-2.38-3.22c-20.35 15-24.38 38.74-25.14 45.61h-10.89a28.4 28.4 0 0 1-27.32-36.28c2.67-9.16 8.09-19.08 16.12-29.5 32.92-42.7 92.22-78.25 148.16-89a57.42 57.42 0 0 0 5.6 18.78c13.43 26.59 31.12 39 55.66 39 23 0 44.74-14.52 58.48-38.94 24.28 12.36 43.76 28.54 57.9 48.11 38.62 53.53 41.97 74.16 37.94 82.04z"/><path d="M581 122h-9c-2.1 0-12.48-6-20.89-11.66a2 2 0 0 0-2.22 3.32c4.34 2.9 18.84 12.34 23.11 12.34h9a2 2 0 0 0 0-4zM561 145a11 11 0 1 0 11 11 11 11 0 0 0-11-11zm0 18a6.57 6.57 0 0 1-1.73-.23 4 4 0 1 0-5-5A6.57 6.57 0 0 1 554 156a7 7 0 1 1 7 7zM524 216c-4.49 0-8 2.64-8 6s3.51 6 8 6 8-2.64 8-6-3.51-6-8-6zm0 8c-2.44 0-4-1.18-4-2s1.56-2 4-2 4 1.18 4 2-1.56 2-4 2zM504 148a10 10 0 1 0 10 10 10 10 0 0 0-10-10zm.67 16a4 4 0 1 0-6.43-4.28A6.26 6.26 0 0 1 498 158a6 6 0 1 1 6.67 6zM557 337a6 6 0 1 0-6-6 6 6 0 0 0 6 6zm0-8a2 2 0 1 1-2 2 2 2 0 0 1 2-2z"/><path d="M534.21 195.16c-.06 0-5.71 2.36-10.69-3.46-2.53-2.95 1.1-17.86 3.76-28.75 3.55-14.59 5.56-23.74 3.51-27.84-2.14-4.29-9.63-5.42-23.55-3.59a190.29 190.29 0 0 0-18.73 3.54 2 2 0 1 0 1 3.88c21.27-5.32 36.14-5.2 37.72-2.05s-1.43 15.3-3.82 25.11c-4.21 17.3-6.51 28.1-2.91 32.3a14.24 14.24 0 0 0 10.95 5.34 11.42 11.42 0 0 0 4.36-.8 2 2 0 1 0-1.58-3.68zM502 121a2.19 2.19 0 0 0 .36 0c.48-.09 11.88-2.23 16.3-8.86a2 2 0 1 0-3.32-2.22c-3.48 5.21-13.6 7.12-13.7 7.14a2 2 0 0 0 .36 4z"/></g><path id="phone-top" class="cls-3" d="M385 316.2l-6.28-19.75a14 14 0 0 1 9.1-17.58l39.07-12.43a14 14 0 0 1 17.59 9.1l-3.81 1.22a10 10 0 0 0-12.56-6.5l-39.08 12.42a10 10 0 0 0-6.5 12.56l6.2 19.49z"/></svg>
