<svg xmlns="http://www.w3.org/2000/svg" width="800" height="400"><defs><style>.cls-2{fill:#fff}.cls-3{fill:#dd000b}</style></defs><g id="write"><path id="background" fill="transparent" d="M0 0h800v400H0z"/><g id="shadow"><path class="cls-2" d="M472.5 284c-20.4-24.71-37.41-42-50.56-54l.14-.06c19.29-9.58 24.37-38.6 11.35-64.82-8.91-17.94-24-29.91-38.8-32.62 3.53-21.31-16.21-56.49-57.13-68-42.76-12.06-92.45 6.29-98.34 27.18-1.82 6.45-.21 13.47 4.13 20.43a27.57 27.57 0 0 0-3.44-1.09c-20.13-4.84-42.21 15.18-49.31 44.72-4.76 19.8-1.57 38.84 7.11 50.7-19.84 1.41-33.33 3.28-35.15 5.56-2.11 2.63-2 12.27-.69 25-12.41 11.94-32 31-53.31 53-36 37 0 43 0 43h368.25a17.89 17.89 0 0 0 11.53-4c6.72-5.64 11.52-18.35-15.78-45z"/><circle class="cls-2" cx="457" cy="210" r="18"/></g><g id="author"><path d="M422 295a2 2 0 0 0 0-4h-8a2 2 0 0 0 0 4z"/><path d="M482 299.64c-16.92-20.5-33.27-38-48.63-52.21A33.68 33.68 0 0 0 446 233.14a20 20 0 1 0 4.61-20 68.17 68.17 0 0 0-7.36-31.92c-8.53-17.18-23.1-29.76-38.38-33.3 2.58-24.18-20.29-57.53-58.8-68.38-43.44-12.25-94.44 6-100.8 28.55-1.55 5.51-.85 11.56 2 17.73-20.88-4.15-43.43 16.36-50.66 46.41-4.7 19.58-1.85 39.64 7.45 52.35a2 2 0 0 0 2.79.44 2 2 0 0 0 .44-2.8c-8.63-11.79-11.23-30.58-6.79-49.06 6.83-28.41 27.87-47.81 46.91-43.23a22.54 22.54 0 0 1 2.59.8 57.21 57.21 0 0 0 6.22 7.87c-37.12 26.53-30.1 70.74-27 83.83a2 2 0 0 0 1.95 1.54 2.4 2.4 0 0 0 .46 0 2 2 0 0 0 1.49-2.41c-11.13-47.11 13.42-71.15 26-80a88 88 0 0 0 8.37 7c11.06 8.21 24.85 15 40.16 20a2 2 0 0 0-1.35 3.55c.42.34 10.4 8.28 17.7 10.36a74.23 74.23 0 0 0 13.37 2.35c1.87.2 3.8.41 5.9.71h.28a2 2 0 0 0 .28-4c-2.17-.31-4.13-.52-6-.73a70.47 70.47 0 0 1-12.7-2.21c-6.53-1.87-16.2-9.56-16.3-9.64s-.14-.09-.21-.14c1.6.51 3.21 1 4.85 1.46a152.57 152.57 0 0 0 40.68 5.91c3.26 0 6.44-.13 9.51-.39-2.86 13-.66 28.14 6.2 42 .71 1.42 1.48 2.85 2.36 4.37a2 2 0 0 0 1.73 1 2.07 2.07 0 0 0 1-.27 2 2 0 0 0 .72-2.74c-.84-1.43-1.57-2.79-2.24-4.13-6.7-13.49-8.68-28.22-5.54-40.66 2.32-.3 4.59-.67 6.75-1.13 16-3.42 26.47-11 29.38-21.29.08-.3.16-.62.24-.95 14 3.35 27.49 15.08 35.45 31.11 12.27 24.71 8 52-9.4 61.57-2.24-2-4.47-4-6.64-5.82a2 2 0 1 0-2.59 3.05c2.42 2 4.92 4.25 7.43 6.52a1.24 1.24 0 0 0 .21.19c15.75 14.31 32.67 32.39 50.28 53.66a1.07 1.07 0 0 0 .14.16c13.65 13.32 20.69 24.74 20.38 33a11.93 11.93 0 0 1-4.49 9 15.91 15.91 0 0 1-10.28 3.57H399.5a2 2 0 0 0 0 4h85.25a19.87 19.87 0 0 0 12.81-4.48 16 16 0 0 0 5.92-11.91c.36-9.56-6.88-21.67-21.48-35.97zM465 211a16 16 0 1 1-16 16 16 16 0 0 1 16-16zm-91.27-40.74c-2.46.53-5.07 1-7.75 1.26-15.27 1.76-33.55-.06-51.49-5.11-17.16-4.84-32.6-12.13-44.64-21.07a82.14 82.14 0 0 1-9.14-7.82 53.58 53.58 0 0 1-7.69-9.45c-4.21-6.76-5.52-13.09-3.9-18.84 5.2-18.44 52.16-38.12 95.87-25.8 41 11.56 58.93 46.23 55.69 65.79a22.68 22.68 0 0 1-.55 2.58c-2.51 8.8-11.88 15.36-26.4 18.46z"/><path d="M272.19 190.68a10.43 10.43 0 0 0-6.68-2.18 11.22 11.22 0 0 0-8.5 3.23 12.29 12.29 0 0 0-3 8.37 2 2 0 0 0 .28.9H250a2 2 0 0 0 0 4h25a2 2 0 0 0 2-1.92c0-.34.27-8.37-4.81-12.4zM269 201a4 4 0 0 0-8 0h-3.28a2 2 0 0 0 .28-1.09 8.27 8.27 0 0 1 1.92-5.45 7.43 7.43 0 0 1 5.58-2 6.47 6.47 0 0 1 4.2 1.32c2.26 1.79 3 5.08 3.2 7.18z"/><path d="M273.22 179.72c-14.22-1.31-35.29 3.62-36.18 3.83a2 2 0 0 0 .46 3.95 2.4 2.4 0 0 0 .46-.05c.21 0 21.32-5 34.89-3.74 4.55.41 7.71 1.5 9.15 3.12 5.88 6.61-.06 25.63-2.85 32.41a2 2 0 0 0 1.09 2.61 2.06 2.06 0 0 0 .76.15 2 2 0 0 0 1.85-1.24 94.31 94.31 0 0 0 4.36-14.21c2.29-10.61 1.55-18.14-2.21-22.38-2.2-2.46-6-3.92-11.78-4.45zM337 201h-4.28a2 2 0 0 0 .28-.9 12.29 12.29 0 0 0-3-8.37 11.22 11.22 0 0 0-8.5-3.23 10.24 10.24 0 0 0-7.7 3.09c-4 4.21-3.81 11.19-3.8 11.49a2 2 0 0 0 2 1.92h25a2 2 0 0 0 0-4zm-16-4a4 4 0 0 0-4 4h-2.9c.2-1.9.81-4.79 2.59-6.64a6.31 6.31 0 0 1 4.81-1.86 7.43 7.43 0 0 1 5.58 2 8.32 8.32 0 0 1 1.92 5.4 2 2 0 0 0 .27 1.1H325a4 4 0 0 0-4-4zM186.5 348h-69.82c-1.32-.26-11.2-2.42-13.63-9.82-2.32-7.09 2.82-17.39 14.88-29.79 21.2-21.78 40.67-40.8 53.27-52.92a2 2 0 1 0-2.77-2.88c-12.63 12.14-32.13 31.19-53.36 53-13.36 13.72-18.68 25.1-15.82 33.81 3.34 10.18 16.37 12.46 16.92 12.55h70.33a2 2 0 0 0 0-4z"/><path d="M161 293a2 2 0 0 0 2 2h11a2 2 0 0 0 0-4h-11a2 2 0 0 0-2 2z"/></g><g id="laptop"><path class="cls-3" d="M421.84 224.51c-.94-.84-3.13-2.82-26.17-4.35-6.25-.42-13.56-.78-21.73-1.06-32.59-1.14-77.81-1.13-118 0-8.77.25-17.15.55-24.89.89-9.45.42-18.05.9-25.54 1.44-33.43 2.38-35.55 5-36.57 6.3-1.58 2-3.13 6.77-1.11 26.48 1 10.2 2.94 23.36 5.66 39.11 4.93 28.63 10.92 56.46 11 57.06a3.58 3.58 0 0 0 .11.35.3.3 0 0 1 0 .08 1.88 1.88 0 0 0 .14.24.86.86 0 0 0 .07.1l.15.19.11.09.17.14.12.09.19.1.14.06.22.07h.13a1.5 1.5 0 0 0 .37 0h213a2 2 0 0 0 .55-.09h.11a1.77 1.77 0 0 0 .49-.26l.08-.06a1.9 1.9 0 0 0 .39-.41 1.74 1.74 0 0 0 .26-.55v-.05c.08-.28 7.56-28.1 13.92-57.09 3.91-17.85 6.61-32.48 8-43.49.44-3.52.76-6.71.94-9.5.73-8.91-.03-13.82-2.31-15.88zM172 230.29c.47-.45 4.31-2.76 33.76-4.85 7.46-.53 16-1 25.44-1.43 7.72-.34 16.07-.64 24.82-.89 40.12-1.15 85.23-1.16 117.75 0 8.13.28 15.4.63 21.6 1.05 20.41 1.36 23.38 3 23.76 3.34s1.83 2.2 1.15 12.69c-.18 2.71-.49 5.82-.92 9.26-1.39 10.88-4.06 25.4-7.95 43.13-5.48 25.09-11.83 49.3-13.41 55.41H188.12c-1.34-6.28-6.42-30.5-10.69-55.34-2.7-15.66-4.59-28.73-5.63-38.84-1.95-19.12-.29-22.88.2-23.53z"/><path class="cls-3" d="M278.13 294.56a28.88 28.88 0 0 0 33.74 0c3.95-3.14 6.13-7.25 6.13-11.56 0-9.37-10.32-17-23-17s-23 7.63-23 17c0 4.31 2.18 8.42 6.13 11.56zM295 270c10.48 0 19 5.83 19 13 0 3.06-1.64 6.06-4.62 8.44a25 25 0 0 1-28.76 0c-3-2.38-4.62-5.38-4.62-8.44 0-7.17 8.52-13 19-13z"/></g></g></svg>
